<svg xmlns="http://www.w3.org/2000/svg" viewBox="0 0 512 512"><g fill="#a4c2f7"><circle cx="73.143" cy="438.857" r="64"/><circle cx="256" cy="438.857" r="64"/><circle cx="438.857" cy="438.857" r="64"/><circle cx="73.143" cy="256" r="64"/><circle cx="256" cy="256" r="64"/><circle cx="438.857" cy="256" r="64"/><circle cx="73.143" cy="73.143" r="64"/><circle cx="256" cy="73.143" r="64"/><circle cx="438.857" cy="73.143" r="64"/></g><g fill="#e3e7f2"><ellipse cx="425.143" cy="73.143" rx="50.286" ry="64"/><ellipse cx="242.286" cy="73.143" rx="50.286" ry="64"/></g><g fill="#fff"><path d="M438.857 137.143a64.464 64.464 0 0 0 7.681-.504c-24.922-3.8-44.252-30.754-44.252-63.496s19.33-59.696 44.252-63.496a63.982 63.982 0 1 0-7.681 127.496zM256 137.143a64.464 64.464 0 0 0 7.681-.504c-24.922-3.8-44.252-30.754-44.252-63.496s19.33-59.696 44.252-63.496A63.98 63.98 0 1 0 256 137.143z"/></g><ellipse cx="59.429" cy="73.143" rx="50.286" ry="64" fill="#e3e7f2"/><path d="M73.143 137.143a64.464 64.464 0 0 0 7.681-.504c-24.922-3.8-44.252-30.754-44.252-63.496s19.33-59.696 44.252-63.496c-23.61-2.863-46.858 7.606-60.364 27.182a63.98 63.98 0 0 0 52.683 100.314z" fill="#fff"/><ellipse cx="59.429" cy="256" rx="50.286" ry="64" fill="#e3e7f2"/><path d="M73.143 320a64.464 64.464 0 0 0 7.681-.504c-24.922-3.8-44.252-30.754-44.252-63.496s19.33-59.696 44.252-63.496A63.981 63.981 0 1 0 73.143 320z" fill="#fff"/><ellipse cx="59.429" cy="438.857" rx="50.286" ry="64" fill="#e3e7f2"/><path d="M73.143 502.857a64.464 64.464 0 0 0 7.681-.504c-24.922-3.8-44.252-30.754-44.252-63.496s19.33-59.696 44.252-63.496a63.982 63.982 0 1 0-7.681 127.496z" fill="#fff"/><ellipse cx="242.286" cy="438.857" rx="50.286" ry="64" fill="#e3e7f2"/><path d="M256 502.857a64.464 64.464 0 0 0 7.681-.504c-24.922-3.8-44.252-30.754-44.252-63.496s19.33-59.696 44.252-63.496A63.982 63.982 0 1 0 256 502.857z" fill="#fff"/><g fill="#e3e7f2"><ellipse cx="425.143" cy="438.857" rx="50.286" ry="64"/><ellipse cx="425.143" cy="256" rx="50.286" ry="64"/><ellipse cx="242.286" cy="256" rx="50.286" ry="64"/></g><g fill="#fff"><path d="M256 320a64.464 64.464 0 0 0 7.681-.504c-24.922-3.8-44.252-30.754-44.252-63.496s19.33-59.696 44.252-63.496A63.981 63.981 0 1 0 256 320zM440.319 320a64.464 64.464 0 0 0 7.681-.504c-24.922-3.8-44.252-30.754-44.252-63.496s19.33-59.696 44.252-63.496A63.981 63.981 0 1 0 440.319 320zM440.319 502.857a64.464 64.464 0 0 0 7.681-.504c-24.922-3.8-44.252-30.754-44.252-63.496s19.33-59.696 44.252-63.496a63.982 63.982 0 1 0-7.681 127.496z"/></g><g fill="#428dff"><path d="M73.143 512C32.747 512 0 479.253 0 438.857s32.747-73.143 73.143-73.143 73.143 32.747 73.143 73.143c-.046 40.377-32.767 73.097-73.143 73.143zm0-128c-30.297 0-54.857 24.56-54.857 54.857s24.56 54.857 54.857 54.857S128 469.154 128 438.857c-.033-30.283-24.574-54.824-54.857-54.857zM256 512c-40.396 0-73.143-32.747-73.143-73.143s32.747-73.143 73.143-73.143 73.143 32.747 73.143 73.143C329.097 479.234 296.377 511.954 256 512zm0-128c-30.297 0-54.857 24.56-54.857 54.857s24.56 54.857 54.857 54.857 54.857-24.56 54.857-54.857C310.824 408.574 286.283 384.033 256 384zM438.857 512c-40.396 0-73.143-32.747-73.143-73.143s32.747-73.143 73.143-73.143S512 398.461 512 438.857c-.046 40.377-32.766 73.097-73.143 73.143zm0-128C408.56 384 384 408.56 384 438.857s24.56 54.857 54.857 54.857 54.857-24.56 54.857-54.857c-.033-30.283-24.574-54.824-54.857-54.857zM73.143 329.143C32.747 329.143 0 296.396 0 256s32.747-73.143 73.143-73.143 73.143 32.747 73.143 73.143c-.046 40.377-32.767 73.097-73.143 73.143zm0-128c-30.297 0-54.857 24.56-54.857 54.857s24.56 54.857 54.857 54.857S128 286.297 128 256c-.033-30.283-24.574-54.824-54.857-54.857zM256 329.143c-40.396 0-73.143-32.747-73.143-73.143s32.747-73.143 73.143-73.143 73.143 32.747 73.143 73.143c-.046 40.377-32.766 73.097-73.143 73.143zm0-128c-30.297 0-54.857 24.56-54.857 54.857s24.56 54.857 54.857 54.857 54.857-24.56 54.857-54.857c-.033-30.283-24.574-54.824-54.857-54.857zM438.857 329.143c-40.396 0-73.143-32.747-73.143-73.143s32.747-73.143 73.143-73.143S512 215.604 512 256c-.046 40.377-32.766 73.097-73.143 73.143zm0-128C408.56 201.143 384 225.703 384 256s24.56 54.857 54.857 54.857 54.857-24.56 54.857-54.857c-.033-30.283-24.574-54.824-54.857-54.857zM73.143 146.286C32.747 146.286 0 113.539 0 73.143S32.747 0 73.143 0s73.143 32.747 73.143 73.143c-.046 40.376-32.767 73.097-73.143 73.143zm0-128c-30.297 0-54.857 24.56-54.857 54.857S42.846 128 73.143 128 128 103.44 128 73.143c-.033-30.283-24.574-54.824-54.857-54.857zM256 146.286c-40.396 0-73.143-32.747-73.143-73.143S215.604 0 256 0s73.143 32.747 73.143 73.143c-.046 40.376-32.766 73.097-73.143 73.143zm0-128c-30.297 0-54.857 24.56-54.857 54.857S225.703 128 256 128s54.857-24.56 54.857-54.857C310.824 42.86 286.283 18.319 256 18.286zM438.857 146.286c-40.396 0-73.143-32.747-73.143-73.143S398.461 0 438.857 0 512 32.747 512 73.143c-.046 40.376-32.766 73.097-73.143 73.143zm0-128C408.56 18.286 384 42.846 384 73.143S408.56 128 438.857 128s54.857-24.56 54.857-54.857c-.033-30.283-24.574-54.824-54.857-54.857z"/></g></svg>
