<svg xmlns="http://www.w3.org/2000/svg" viewBox="0 0 512 512"><circle cx="256" cy="256" r="247.172" fill="#a4c2f7"/><ellipse cx="242.759" cy="256" rx="233.931" ry="247.172" fill="#e3e7f2"/><path d="M256 503.172c4.443 0 8.856-.129 13.241-.362C138.065 495.779 35.307 387.364 35.307 256S138.065 16.221 269.241 9.19A249.476 249.476 0 0 0 256 8.828C119.49 8.828 8.828 119.49 8.828 256S119.49 503.172 256 503.172z" fill="#fff"/><g fill="#428dff"><path d="M256 512C114.615 512 0 397.385 0 256S114.615 0 256 0s256 114.615 256 256c-.162 141.318-114.682 255.838-256 256zm0-494.345C124.366 17.655 17.655 124.366 17.655 256S124.366 494.345 256 494.345 494.345 387.634 494.345 256C494.195 124.428 387.572 17.805 256 17.655z"/><path d="M256 512a8.824 8.824 0 0 1-8.828-8.828V8.828a8.828 8.828 0 0 1 17.656 0v494.345A8.824 8.824 0 0 1 256 512z"/><path d="M256 512c-1.302 0-2.586-.043-3.879-.086l-1.957-.06a8.836 8.836 0 0 1-5.353-1.966C168.14 447.904 123.586 354.592 123.586 256S168.14 64.096 244.81 2.112a8.839 8.839 0 0 1 5.353-1.966l1.957-.06C253.414.043 254.698 0 256 0a8.828 8.828 0 0 1 0 17.656c-.793 0-1.578.017-2.362.043C182.466 76.362 141.241 163.767 141.241 256s41.225 179.638 112.397 238.302c.785.026 1.569.043 2.362.043A8.828 8.828 0 0 1 256 512z"/><path d="M256 150.069A324.856 324.856 0 0 1 71.802 93.164a8.825 8.825 0 1 1 9.965-14.569A307.274 307.274 0 0 0 256 132.414a307.274 307.274 0 0 0 174.233-53.819 8.826 8.826 0 0 1 9.966 14.569A324.861 324.861 0 0 1 256 150.069zM440.147 429.638a8.806 8.806 0 0 1-5.112-1.638c-107.155-76.322-250.914-76.322-358.069 0a8.826 8.826 0 0 1-12.31-2.069 8.826 8.826 0 0 1 2.069-12.31c113.284-80.69 265.267-80.69 378.552 0a8.829 8.829 0 0 1-5.13 16.017z"/><path d="M256 512a8.828 8.828 0 0 1 0-17.656c.793 0 1.578-.018 2.362-.043C329.534 435.638 370.759 348.233 370.759 256S329.534 76.362 258.362 17.698a73.997 73.997 0 0 0-2.362-.043A8.828 8.828 0 0 1 256 0c1.302 0 2.586.043 3.879.086l1.957.06a8.836 8.836 0 0 1 5.353 1.966C343.86 64.096 388.414 157.408 388.414 256S343.86 447.904 267.19 509.888a8.839 8.839 0 0 1-5.353 1.966l-1.957.06c-1.294.043-2.578.086-3.88.086z"/><path d="M503.172 264.828H8.828a8.828 8.828 0 0 1 0-17.656h494.345a8.828 8.828 0 1 1-.001 17.656z"/></g></svg>
