<svg viewBox="0 0 512 512" xmlns="http://www.w3.org/2000/svg"><path d="m418.132812 8.535156h-187.734374v62.632813c.007812 2.15625.832031 4.230469 2.304687 5.800781 2.445313 2.484375 6.109375 3.320312 9.386719 2.136719.386718-.15625.785156-.269531 1.195312-.34375 4.101563-1.347657 8.398438-2.011719 12.714844-1.960938 22.613281.117188 41.207031 17.859375 42.382812 40.441407 1.179688 22.585937-15.46875 42.164062-37.945312 44.636718-5.835938.667969-11.746094.054688-17.324219-1.792968-.347656-.046876-.691406-.132813-1.023437-.257813-3.277344-1.183594-6.941406-.347656-9.386719 2.132813-1.492187 1.5625-2.316406 3.644531-2.304687 5.804687v62.632813h66.988281c3.03125-.0625 5.792969-1.746094 7.242187-4.410157 1.445313-2.664062 1.351563-5.898437-.246094-8.472656-3.773437-6.441406-5.75-13.78125-5.714843-21.25-.015625-18.609375 12.039062-35.082031 29.78125-40.703125 7.273437-2.246094 15.003906-2.570312 22.441406-.9375 12.304687 2.683594 22.742187 10.773438 28.417969 22.015625 6.199218 12.152344 6.261718 26.53125.167968 38.742187l43.09375 13.738282 4.097657 1.277344h17.066406c4.710937 0 8.53125-3.820313 8.53125-8.53125v-179.199219c0-18.851563-15.28125-34.132813-34.132813-34.132813zm0 0" fill="#d4e1f4"/><path d="m293.289062 353.535156c-7.511718 13.550782-21.792968 21.949219-37.289062 21.929688-4.734375.027344-9.4375-.75-13.910156-2.300782-2.628906-1.011718-5.589844-.671874-7.917969.910157-2.332031 1.582031-3.742187 4.207031-3.773437 7.023437v54.101563c0 4.714843-3.820313 8.535156-8.53125 8.535156h-179.199219c-18.851563 0-34.132813-15.28125-34.132813-34.132813v-179.203124h66.984375c3.03125-.0625 5.796875-1.746094 7.242188-4.410157 1.445312-2.664062 1.351562-5.898437-.246094-8.472656-3.773437-6.441406-5.75-13.78125-5.714844-21.25-.015625-17.980469 11.242188-34.046875 28.15625-40.160156 16.910157-6.117188 35.839844-.972657 47.332031 12.863281 11.488282 13.832031 13.070313 33.386719 3.957032 48.886719-1.414063 2.65625-1.328125 5.859375.230468 8.429687 1.558594 2.574219 4.355469 4.136719 7.363282 4.113282h66.558594v54.101562c.03125 2.820312 1.441406 5.445312 3.773437 7.027344 2.328125 1.582031 5.289063 1.921875 7.917969.910156 4.472656-1.550781 9.175781-2.332031 13.910156-2.304688 9.238281-.035156 18.230469 2.960938 25.601562 8.535157" fill="#e3e7f2"/><path d="m298.332031 124.886719c-1.625 12.742187-8.902343 24.074219-19.808593 30.859375-10.910157 6.785156-24.292969 8.300781-36.441407 4.125-2.621093-1.003906-5.5625-.667969-7.890625.898437-2.324218 1.570313-3.742187 4.171875-3.792968 6.980469v62.648438h-66.558594c-3 .015624-5.785156-1.542969-7.339844-4.109376-1.550781-2.5625-1.644531-5.757812-.246094-8.40625 10.523438-17.882812 6.660156-40.738281-9.15625-54.167968-15.816406-13.425782-39-13.53125-54.933594-.246094-15.9375 13.285156-20.007812 36.105469-9.648437 54.078125 1.617187 2.574219 1.71875 5.816406.261719 8.484375-1.453125 2.664062-4.238282 4.335938-7.273438 4.367188h-66.96875v-187.730469c0-18.851563 15.28125-34.132813 34.132813-34.132813h187.730469v62.648438c.042968 2.816406 1.457031 5.433594 3.789062 7.007812 2.332031 1.578125 5.285156 1.914063 7.910156.902344 13.953125-4.761719 29.378906-2.003906 40.8125 7.308594 11.433594 9.308594 17.261719 23.855468 15.421875 38.484375zm0 0" fill="#d4e1f4"/><path d="m242.089844 159.828125c.332031.125.675781.210937 1.023437.257813-2.671875.9375-5.453125 1.539062-8.277343 1.792968-.703126.113282-1.421876.140625-2.132813.082032 2.445313-2.480469 6.109375-3.316407 9.386719-2.132813zm0 0" fill="#d4e1f4"/><path d="m232.703125 76.96875c3.59375.121094 7.152344.722656 10.582031 1.792969-.410156.074219-.808594.1875-1.195312.34375-3.277344 1.183593-6.941406.347656-9.386719-2.136719zm0 0" fill="#d4e1f4"/><path d="m452.265625 42.667969v179.199219c0 4.710937-3.820313 8.53125-8.53125 8.53125h-17.066406l-4.097657-1.277344c2.554688-1.523438 4.113282-4.28125 4.097657-7.253906v-179.199219c0-18.851563-15.285157-34.132813-34.132813-34.132813h25.597656c18.851563 0 34.132813 15.28125 34.132813 34.132813zm0 0" fill="#a4c2f7"/><path d="m426.667969 42.667969v179.199219c.015625 2.972656-1.542969 5.730468-4.097657 7.253906l-43.09375-13.738282c6.09375-12.210937 6.03125-26.589843-.167968-38.742187-5.675782-11.242187-16.113282-19.332031-28.417969-22.015625-7.4375-1.632812-15.167969-1.308594-22.441406.9375-17.742188 5.621094-29.796875 22.09375-29.78125 40.703125-.035157 7.46875 1.941406 14.808594 5.714843 21.25 1.597657 2.574219 1.691407 5.808594.246094 8.472656-1.449218 2.664063-4.210937 4.347657-7.242187 4.410157h-66.988281v-62.632813c-.011719-2.160156.8125-4.242187 2.304687-5.804687.710937.058593 1.429687.03125 2.132813-.082032 2.824218-.253906 5.605468-.855468 8.277343-1.792968 5.578125 1.847656 11.488281 2.460937 17.324219 1.792968 22.476562-2.472656 39.125-22.050781 37.945312-44.636718-1.175781-22.582032-19.769531-40.324219-42.382812-40.441407-4.316406-.050781-8.613281.613281-12.714844 1.960938-3.429687-1.070313-6.988281-1.671875-10.582031-1.792969-1.472656-1.570312-2.296875-3.644531-2.304687-5.800781v-62.632813h162.136718c18.847656 0 34.132813 15.28125 34.132813 34.132813zm0 0" fill="#d4e1f4"/><path d="m503.464844 298.667969v170.664062c0 18.851563-15.28125 34.132813-34.132813 34.132813h-179.199219c-4.710937 0-8.53125-3.820313-8.53125-8.53125v-54.101563c-.015624-2.160156.8125-4.242187 2.300782-5.800781 2.445312-2.484375 6.113281-3.320312 9.386718-2.136719.386719.15625.789063.269531 1.195313.34375 4.101563 1.347657 8.398437 2.011719 12.714844 1.960938 15.464843-.265625 29.574219-8.878907 36.878906-22.507813 7.300781-13.632812 6.65625-30.152344-1.6875-43.171875-8.34375-13.023437-23.082031-20.507812-38.519531-19.566406-2.710938.636719-5.363282 1.492187-7.933594 2.558594-.855469.339843-1.792969.683593-2.648438 1.023437-3.902343 1.550782-8.355468.03125-10.496093-3.582031-.789063-1.3125-1.203125-2.820313-1.191407-4.351563v-46.933593c0-4.714844 3.820313-8.535157 8.53125-8.535157h58.453126c3.03125-.0625 5.796874-1.746093 7.242187-4.410156 1.445313-2.664062 1.351563-5.898437-.242187-8.476562-3.777344-6.441406-5.753907-13.777344-5.71875-21.246094 0-18.535156 11.964843-34.949219 29.609374-40.617188.085938 0 .085938 0 .171876-.085937 17.289062-5.425781 36.121093.625 47.019531 15.101563 5.570312 7.371093 8.570312 16.363281 8.53125 25.601562.035156 7.46875-1.941407 14.804688-5.714844 21.246094-1.597656 2.578125-1.691406 5.8125-.246094 8.476562 1.445313 2.664063 4.210938 4.347656 7.242188 4.410156h58.453125c4.710937 0 8.53125 3.820313 8.53125 8.535157zm0 0" fill="#d4e1f4"/><path d="m477.867188 298.667969v170.664062c0 18.851563-15.28125 34.132813-34.132813 34.132813h-153.601563c-4.710937 0-8.53125-3.820313-8.53125-8.53125v-54.101563c-.015624-2.160156.8125-4.242187 2.300782-5.800781 3.59375-.121094 7.152344-.722656 10.582031-1.792969 4.101563 1.347657 8.398437 2.011719 12.714844 1.960938 15.464843-.265625 29.574219-8.878907 36.878906-22.507813 7.300781-13.632812 6.65625-30.152344-1.6875-43.171875-8.34375-13.023437-23.082031-20.507812-38.519531-19.566406-2.710938.636719-5.363282 1.492187-7.933594 2.558594-4.195312-1.625-8.644531-2.492188-13.144531-2.558594-.789063-1.3125-1.203125-2.820313-1.191407-4.351563v-46.933593c0-4.714844 3.820313-8.535157 8.53125-8.535157h58.453126c3.03125-.0625 5.796874-1.746093 7.242187-4.410156 1.445313-2.664062 1.351563-5.898437-.242187-8.476562-3.777344-6.441406-5.753907-13.777344-5.71875-21.246094 0-18.535156 11.964843-34.949219 29.609374-40.617188.085938 0 .085938 0 .171876-.085937 17.820312 5.542969 29.960937 22.039063 29.953124 40.703125.03125 7.46875-1.941406 14.804688-5.71875 21.246094-1.597656 2.578125-1.691406 5.8125-.246093 8.476562 1.449219 2.664063 4.210937 4.347656 7.242187 4.410156h58.453125c4.714844 0 8.535157 3.820313 8.535157 8.535157zm0 0" fill="#e3e7f2"/><path d="m42.667969 443.734375h25.597656c-18.851563 0-34.132813-15.28125-34.132813-34.132813v-366.933593c0-18.851563 15.28125-34.132813 34.132813-34.132813h-25.597656c-18.851563 0-34.132813 15.28125-34.132813 34.132813v366.933593c0 18.851563 15.28125 34.132813 34.132813 34.132813zm0 0" fill="#fff"/><path d="m17.066406 230.398438v179.203124h-17.066406v-179.203124zm0 0" fill="#fff"/><g fill="#428dff"><path d="m8.535156 307.199219c2.257813-.03125 4.421875-.914063 6.058594-2.472657 3.296875-3.367187 3.296875-8.753906 0-12.117187l-1.28125-1.023437c-.476562-.324219-.992188-.582032-1.535156-.769532-.484375-.246094-1.003906-.417968-1.539063-.511718-.5625-.09375-1.132812-.152344-1.703125-.171876-2.261718.035157-4.425781.917969-6.058594 2.476563-.773437.816406-1.382812 1.769531-1.792968 2.816406-1.289063 3.179688-.5859378 6.824219 1.792968 9.300781.8125.769532 1.769532 1.378907 2.8125 1.789063 1.027344.4375 2.128907.671875 3.246094.683594zm0 0"/><path d="m494.933594 281.601562-58.027344-.0625c7.476562-12.945312 8.894531-28.523437 3.875-42.605468h2.953125c9.425781 0 17.066406-7.640625 17.066406-17.066406v-179.199219c-.027343-23.554688-19.113281-42.6406252-42.667969-42.667969h-375.464843c-23.554688.0273438-42.6406252 19.113281-42.667969 42.667969v221.867187c0 4.710938 3.820312 8.53125 8.535156 8.53125 4.710938 0 8.53125-3.820312 8.53125-8.53125v-25.601562h58.453125c1.476563 0 2.941407-.191406 4.371094-.5625 4.261719-1.128906 7.894531-3.921875 10.085937-7.75 2.375-4.207032 2.871094-9.21875 1.371094-13.816406-.359375-1.253907-.855468-2.464844-1.472656-3.617188-.742188-1.253906-1.394531-2.5625-1.957031-3.90625-4.820313-11.683594-2.796875-25.074219 5.269531-34.804688 8.0625-9.730468 20.84375-14.210937 33.214844-11.644531 1.632812.316407 3.238281.757813 4.804687 1.316407 9.292969 3.375 16.65625 10.632812 20.164063 19.875 3.511718 9.246093 2.820312 19.558593-1.894532 28.25-.21875.417968-.355468.855468-.605468 1.273437-.6875 1.195313-1.222656 2.46875-1.59375 3.796875 0 .085938-.078125.164062-.101563.246094-.070312.25 0 .503906-.105469.753906-.917968 4.039062-.285156 8.28125 1.777344 11.878906.1875.332032.46875.570313.671875.851563 3.152344 4.859375 8.53125 7.8125 14.320313 7.859375h58.027344v45.566406c-.039063 5.46875 2.59375 10.605469 7.054687 13.765625 4.660156 3.292969 10.625 4.121094 16 2.21875 9.359375-3.078125 19.582031-2.074219 28.160156 2.765625v42.351562c.035157 4.792969 2.101563 9.347657 5.683594 12.535157-6.238281 5.644531-14.351563 8.777343-22.765625 8.796875-3.773438.023437-7.527344-.597656-11.09375-1.835938-5.363281-1.878906-11.300781-1.046875-15.941406 2.238282-4.476563 3.148437-7.128906 8.289062-7.097656 13.761718v54.101563h-179.199219c-14.140625 0-25.601563-11.460938-25.601563-25.597657v-76.800781c0-4.714843-3.820312-8.535156-8.53125-8.535156-4.714844 0-8.535156 3.820313-8.535156 8.535156v76.800781c.0273438 23.550782 19.113281 42.636719 42.667969 42.664063h179.199219c9.425781 0 17.066406-7.640625 17.066406-17.066406l.324218-53.980469c5.382813 1.871094 11.042969 2.8125 16.742188 2.78125 17.359375-.015625 33.523438-8.851562 42.90625-23.457031 4.308594-1.648438 5.757812-2.039063 5.605469-2.039063 17.109375-1.144531 32.480469 10.394532 36.15625 27.144532 2.085937 10.113281-.535157 20.632812-7.125 28.585937-9.160157 10.816406-23.964844 15.007813-37.4375 10.589844-5.371094-1.855469-11.308594-1.015625-15.957031 2.253906-4.464844 3.144531-7.109376 8.273437-7.082032 13.738281v54.117188c0 9.425781 7.640625 17.066406 17.066406 17.066406h179.199219c23.554688-.027344 42.640625-19.113281 42.667969-42.667969v-170.664062c0-9.425781-7.640625-17.066407-17.066406-17.066407zm-51.199219-238.933593v179.199219h-13.046875c-9.847656-11.089844-24.050781-17.324219-38.878906-17.066407 1.796875-10.917969.09375-22.121093-4.863282-32.007812-6.875-13.523438-19.449218-23.25-34.261718-26.507813-15.191406-3.429687-31.121094.234375-43.289063 9.957032-12.167969 9.722656-19.253906 24.449218-19.261719 40.023437-.039062 9.046875 2.46875 17.917969 7.246094 25.601563h-58.394531l.324219-53.972657c25.019531 8.628907 52.484375-3.292969 63.265625-27.460937 2.152343-4.589844 3.59375-9.484375 4.265625-14.507813 2.253906-17.640625-4.804688-35.1875-18.652344-46.351562-13.847656-11.160157-32.492188-14.335938-49.253906-8.390625v-54.117188h179.199218c14.140626 0 25.601563 11.460938 25.601563 25.601563zm-426.667969 179.199219v-179.199219c0-14.140625 11.460938-25.601563 25.601563-25.601563h179.199219v54.117188c-.039063 5.457031 2.589843 10.585937 7.039062 13.738281 4.644531 3.285156 10.585938 4.125 15.957031 2.253906 13.085938-4.316406 27.488281-.511719 36.738281 9.703125 4.867188 5.453125 7.828126 12.34375 8.4375 19.625.207032 2.457032.160157 4.929688-.144531 7.375-2.171875 15.59375-14.601562 27.753906-30.242187 29.585938-4.992188.519531-10.039063-.0625-14.78125-1.707032-5.359375-1.867187-11.296875-1.027343-15.929688 2.25-4.460937 3.144532-7.105468 8.273438-7.074218 13.730469v54.171875l-58.273438.289063c.449219-.777344.722656-1.628907 1.140625-2.421875 7.011719-13.207032 7.847656-28.832032 2.28125-42.707032-5.566406-13.878906-16.964844-24.597656-31.15625-29.296874-2.050781-.703126-4.148437-1.273438-6.273437-1.707032-1.878907-.355468-3.777344-.609375-5.683594-.761718h-.101563c-1.425781-.117188-2.839843-.203126-4.265625-.203126-.257812 0-.503906.058594-.769531.066407-2.390625.039062-4.777344.242187-7.140625.605469-.777344.121093-1.527344.292968-2.289062.445312-1.996094.398438-3.96875.914062-5.902344 1.542969-.53125.171875-1.066406.300781-1.589844.488281-2.320312.867188-4.578125 1.898438-6.757812 3.089844-.585938.324218-1.175782.664062-1.757813 1.015625-2.203125 1.277343-4.304687 2.726562-6.289063 4.324219l-.136718.09375c-1.472656 1.21875-2.878906 2.515624-4.214844 3.882812-9.265625 9.535156-14.441406 22.3125-14.421875 35.609375-.007813 8.054687 2.023437 15.980469 5.898437 23.042969.453126.851562.851563 1.703125 1.339844 2.558594zm221.867188 62.632812v-45.566406h58.445312c5.984375.0625 11.53125-3.117188 14.507813-8.3125 3.023437-5.378906 2.972656-11.953125-.128907-17.289063-6.824218-11.777343-5.996093-26.488281 2.109376-37.425781 8.101562-10.9375 21.933593-16.015625 35.1875-12.917969 9.777343 2.128907 18.082031 8.539063 22.625 17.457031 4.4375 8.890626 4.847656 19.257813 1.132812 28.476563-19.074219 7.851563-31.511719 26.453125-31.480469 47.078125-.039062 9.046875 2.472657 17.917969 7.246094 25.601562h-58.445313c-4.550781-.003906-8.910156 1.820313-12.109374 5.058594-12.230469-5.863281-26.289063-6.640625-39.089844-2.160156zm256 184.832031c0 14.140625-11.460938 25.601563-25.601563 25.601563h-179.199219l.402344-53.957032c19.667969 6.738282 41.457032.914063 55.140625-14.738281 13.679688-15.65625 16.539063-38.027343 7.234375-56.617187-9.308594-18.589844-28.929687-29.707032-49.660156-28.132813-4.550781.722657-8.96875 2.109375-13.117188 4.113281v-46.933593h58.445313c5.984375.058593 11.535156-3.121094 14.507813-8.3125 3.023437-5.378907 2.972656-11.957031-.128907-17.289063-5.132812-8.929687-5.960937-19.695312-2.25-29.304687 3.707031-9.605469 11.554688-17.023438 21.355469-20.1875h.113281c3.335938-1.121094 6.835938-1.699219 10.359375-1.707031 10.734375.035156 20.835938 5.085937 27.304688 13.652343 4.476562 5.886719 6.875 13.085938 6.828125 20.480469-.003907 5.972656-1.578125 11.839844-4.558594 17.015625-3.105469 5.355469-3.136719 11.953125-.085937 17.339844 2.972656 5.191406 8.523437 8.371093 14.507812 8.3125h58.402344zm0 0"/><path d="m51.199219 401.066406v-136.53125c0-4.714844-3.820313-8.535156-8.53125-8.535156-4.714844 0-8.535157 3.820312-8.535157 8.535156v136.53125c0 4.714844 3.820313 8.535156 8.535157 8.535156 4.710937 0 8.53125-3.820312 8.53125-8.535156zm0 0"/><path d="m42.667969 42.667969c-4.714844 0-8.535157 3.820312-8.535157 8.53125v119.46875c0 4.710937 3.820313 8.53125 8.535157 8.53125 4.710937 0 8.53125-3.820313 8.53125-8.53125v-119.46875c0-4.710938-3.820313-8.53125-8.53125-8.53125zm0 0"/></g></svg>
